<svg width="16" height="17" viewBox="0 0 16 17" fill="none" xmlns="http://www.w3.org/2000/svg">
<path d="M5.33203 2.49967C5.33203 2.13148 5.03355 1.83301 4.66536 1.83301C4.29717 1.83301 3.9987 2.13148 3.9987 2.49967H2.66534C1.92896 2.49967 1.33203 3.09663 1.33203 3.83301V13.833C1.33203 14.5694 1.92899 15.1663 2.66536 15.1663H7.83512C7.51362 14.7653 7.24887 14.3168 7.05304 13.833H2.66536V3.83301H3.9987C3.9987 4.2012 4.29717 4.49967 4.66536 4.49967C5.03355 4.49967 5.33203 4.2012 5.33203 3.83301H10.6654C10.6654 4.2012 10.9638 4.49967 11.332 4.49967C11.7002 4.49967 11.9987 4.2012 11.9987 3.83301H13.332V6.6677C13.8051 6.78945 14.2527 6.97446 14.6654 7.21318V3.83301C14.6654 3.09663 14.0684 2.49967 13.3321 2.49967H11.9987C11.9987 2.13148 11.7002 1.83301 11.332 1.83301C10.9638 1.83301 10.6654 2.13148 10.6654 2.49967H5.33203Z" fill="#646A73"/>
<path d="M5.33203 9.16634C5.70022 9.16634 5.9987 9.46482 5.9987 9.83301V10.4997C5.9987 10.8679 5.70022 11.1663 5.33203 11.1663H4.66536C4.29717 11.1663 3.9987 10.8679 3.9987 10.4997V9.83301C3.9987 9.46482 4.29717 9.16634 4.66536 9.16634H5.33203Z" fill="#646A73"/>
<path d="M4.66536 5.83301C4.29718 5.83301 3.9987 6.13148 3.9987 6.49967V7.16634C3.9987 7.53453 4.29717 7.83301 4.66536 7.83301H5.33203C5.70022 7.83301 5.9987 7.53453 5.9987 7.16634V6.49967C5.9987 6.13148 5.70022 5.83301 5.33203 5.83301H4.66536Z" fill="#646A73"/>
<path d="M11.332 10.4997C11.332 10.1315 11.6305 9.83301 11.9987 9.83301C12.3669 9.83301 12.6654 10.1315 12.6654 10.4997V11.1663H13.332C13.7002 11.1663 13.9987 11.4648 13.9987 11.833C13.9987 12.2012 13.7002 12.4997 13.332 12.4997H11.9987C11.6305 12.4997 11.332 12.2012 11.332 11.833V10.4997Z" fill="#646A73"/>
<path d="M11.9987 15.833C14.2078 15.833 15.9987 14.0421 15.9987 11.833C15.9987 9.62387 14.2078 7.83301 11.9987 7.83301C9.78956 7.83301 7.9987 9.62387 7.9987 11.833C7.9987 14.0421 9.78956 15.833 11.9987 15.833ZM11.9987 14.4997C10.5259 14.4997 9.33203 13.3058 9.33203 11.833C9.33203 10.3602 10.5259 9.16634 11.9987 9.16634C13.4715 9.16634 14.6654 10.3602 14.6654 11.833C14.6654 13.3058 13.4715 14.4997 11.9987 14.4997Z" fill="#646A73"/>
<path d="M9.33203 6.49967C9.33203 6.13148 9.03355 5.83301 8.66536 5.83301H7.9987C7.63051 5.83301 7.33203 6.13148 7.33203 6.49967V7.16634C7.33203 7.53453 7.63051 7.83301 7.9987 7.83301H8.66536C9.03356 7.83301 9.33203 7.53453 9.33203 7.16634V6.49967Z" fill="#646A73"/>
</svg>
